<?xml version="1.0" encoding="UTF-8"?>
<svg version="1.1" xmlns="http://www.w3.org/2000/svg" width="1200" height="630">
<path d="M0 0 C10.28467825 -0.09328938 20.56925339 -0.16406077 30.85427094 -0.20724869 C35.63167932 -0.22799224 40.4087951 -0.25606328 45.18603516 -0.30175781 C49.80912592 -0.34569369 54.43193789 -0.36923616 59.05522156 -0.37950897 C60.80600871 -0.38681575 62.55678318 -0.40107985 64.30744934 -0.42292023 C82.87062674 -0.64498066 99.72247238 1.96294463 113.8125 15.125 C123.32280757 25.13727815 128.18759897 38.26303711 129 52 C129.07927734 53.32644531 129.07927734 53.32644531 129.16015625 54.6796875 C130.03078952 84.43263313 119.7461651 113.7002209 99.5078125 135.55078125 C73.81222511 160.64600445 41.03793401 159.32730731 7.70959473 159.1373291 C3.67295453 159.11656724 -0.36371199 159.10767171 -4.40039062 159.09765625 C-12.26699772 159.07645039 -20.13347914 159.04248971 -28 159 C-27.35747615 150.77647622 -25.98513734 142.72762762 -24.515625 134.61767578 C-24.26061998 133.19419587 -24.00595005 131.7706559 -23.75158691 130.34706116 C-23.06500565 126.5100979 -22.37368067 122.67400358 -21.68138123 118.83806849 C-20.95587689 114.81389047 -20.2345508 110.78896347 -19.51269531 106.76412964 C-18.30140843 100.01383675 -17.0872326 93.2640688 -15.87109375 86.51464844 C-14.46549313 78.71365371 -13.06350008 70.91201779 -11.66363907 63.10999119 C-10.17092432 54.79045285 -8.67611572 46.47129191 -7.18040466 38.15229177 C-6.75011691 35.75846289 -6.32016244 33.36457432 -5.89025879 30.97067642 C-5.21525911 27.21277832 -4.53881606 23.45514274 -3.86125183 19.69770622 C-3.61286659 18.31911356 -3.36494094 16.94043801 -3.11750793 15.56167412 C-2.77980207 13.68038385 -2.44024157 11.79942678 -2.10058594 9.91848755 C-1.91107361 8.86588305 -1.72156128 7.81327854 -1.52630615 6.72877693 C-1.08852447 4.45897914 -0.59093858 2.23389578 0 0 Z M30 29 C27.34435051 42.03869696 24.85409715 55.09461019 22.546875 68.19921875 C22.23887822 69.93946791 21.93070804 71.67968639 21.62237549 73.4198761 C20.98582211 77.01511145 20.35070294 80.61059578 19.71679688 84.20629883 C18.90298545 88.8223 18.08638987 93.43780332 17.26887131 98.05314922 C16.63677248 101.62247373 16.00561168 105.19196353 15.37479401 108.76151466 C15.07353897 110.46607444 14.77210242 112.17060214 14.47048187 113.87509727 C14.05332535 116.23387711 13.63731806 118.59285654 13.22167969 120.9519043 C13.09705353 121.65559647 12.97242737 122.35928864 12.84402466 123.08430481 C12.24955125 126.02439606 12.24955125 126.02439606 12 129 C17.31610837 129.10002085 22.63165079 129.17200342 27.94848633 129.21972656 C29.75131795 129.23965268 31.55408658 129.26680384 33.35668945 129.30175781 C49.34684801 129.60371027 62.69019098 128.44562586 75 117 C88.39878979 101.88341665 93.16635965 81.81759289 93 62 C92.42730806 53.3175812 90.42808757 44.66961962 84.28125 38.1875 C72.33356811 28.39431812 57.49451997 28.83575816 42.875 28.9375 C41.63234375 28.94201172 40.3896875 28.94652344 39.109375 28.95117188 C36.07286222 28.96285077 33.03646673 28.98012632 30 29 Z " fill="#424242" transform="translate(181,190)"/>
<path d="M0 0 C9.88680343 8.24149575 14.94731321 18.42777611 17.14453125 30.96484375 C17.14453125 35.25484375 17.14453125 39.54484375 17.14453125 43.96484375 C5.92453125 43.96484375 -5.29546875 43.96484375 -16.85546875 43.96484375 C-17.84546875 40.33484375 -18.83546875 36.70484375 -19.85546875 32.96484375 C-23.38569517 26.19062548 -26.58483893 22.41109385 -34.0390625 19.88671875 C-46.12629862 16.96697697 -58.64278066 18.38469077 -69.49609375 24.4375 C-84.83877417 34.3914169 -92.46561294 49.62601629 -96.85546875 66.96484375 C-97.08105469 67.85429687 -97.30664062 68.74375 -97.5390625 69.66015625 C-100.39732994 82.86732306 -100.45889032 98.35201064 -93.60546875 110.33984375 C-88.82604055 117.22279275 -82.70976386 121.54351234 -74.5546875 123.5234375 C-61.81337413 125.60703867 -48.95898786 123.79825229 -38.1015625 116.67578125 C-29.51832688 110.13759481 -25.22136719 101.06253906 -21.85546875 90.96484375 C-33.40546875 90.96484375 -44.95546875 90.96484375 -56.85546875 90.96484375 C-55.89640625 85.36515625 -55.89640625 85.36515625 -54.91796875 79.65234375 C-54.61838257 77.89216919 -54.61838257 77.89216919 -54.31274414 76.09643555 C-54.07285767 74.70678589 -54.07285767 74.70678589 -53.828125 73.2890625 C-53.58461304 71.86726685 -53.58461304 71.86726685 -53.33618164 70.41674805 C-52.85546875 67.96484375 -52.85546875 67.96484375 -51.85546875 64.96484375 C-29.74546875 64.96484375 -7.63546875 64.96484375 15.14453125 64.96484375 C10.43787817 93.68749587 5.34900517 122.32867169 0.14453125 150.96484375 C-7.44546875 150.96484375 -15.03546875 150.96484375 -22.85546875 150.96484375 C-23.18546875 145.35484375 -23.51546875 139.74484375 -23.85546875 133.96484375 C-25.27859375 135.32609375 -26.70171875 136.68734375 -28.16796875 138.08984375 C-42.81456857 151.23052556 -59.3122224 154.66336749 -78.35400391 154.10546875 C-94.57435324 153.19360839 -108.72571745 146.54786221 -120.04296875 134.96484375 C-133.47695257 118.90487544 -136.20772446 99.25259905 -134.85546875 78.96484375 C-132.63307638 56.82694818 -123.16973914 34.22476377 -107.85546875 17.96484375 C-107.05238281 17.09472656 -106.24929688 16.22460938 -105.421875 15.328125 C-79.04397337 -12.20200946 -32.60548545 -23.23865653 0 0 Z " fill="#414141" transform="translate(702.85546875,198.03515625)"/>
<path d="M0 0 C39.27 0 78.54 0 119 0 C116.525 14.355 116.525 14.355 114 29 C86.28 29 58.56 29 30 29 C29.67 31.97 29.34 34.94 29 38 C27.35 46.25 25.7 54.5 24 63 C49.41 63 74.82 63 101 63 C94.27227723 71.97029703 94.27227723 71.97029703 90.5625 76 C87.1272224 79.76023629 83.74607848 83.55771561 80.41015625 87.40625 C77.25238175 90.97514749 77.25238175 90.97514749 74.55758667 91.24050903 C73.01870285 91.2338472 73.01870285 91.2338472 71.44873047 91.22705078 C69.70715164 91.22682419 69.70715164 91.22682419 67.9303894 91.22659302 C66.67203278 91.21627045 65.41367615 91.20594788 64.1171875 91.1953125 C62.83264679 91.1924826 61.54810608 91.18965271 60.22463989 91.18673706 C56.80837233 91.17909809 53.39227463 91.15944752 49.97607422 91.1373291 C46.49058327 91.11687624 43.0050649 91.10773655 39.51953125 91.09765625 C32.67961769 91.07620175 25.839817 91.04206271 19 91 C18.93868896 91.79550766 18.87737793 92.59101532 18.81420898 93.41062927 C17.97555238 103.93674084 17.97555238 103.93674084 17.0625 109.09765625 C16.88976562 110.08314453 16.71703125 111.06863281 16.5390625 112.08398438 C16.36117187 113.06689453 16.18328125 114.04980469 16 115.0625 C15.82210937 116.08021484 15.64421875 117.09792969 15.4609375 118.14648438 C14.14531029 125.56406913 14.14531029 125.56406913 13 129 C41.05 129 69.1 129 98 129 C97 140 97 140 93 159 C53.07 159 13.14 159 -28 159 C-25.74994868 143.24964077 -25.74994868 143.24964077 -24.81712341 137.990448 C-24.60546539 136.79058762 -24.39380737 135.59072723 -24.17573547 134.35450745 C-23.95072861 133.09267136 -23.72572174 131.83083527 -23.49389648 130.53076172 C-23.24872604 129.1460765 -23.00375745 127.76135553 -22.75897217 126.37660217 C-22.10208956 122.66408994 -21.44232729 118.9520951 -20.78191638 115.2402091 C-20.08819781 111.33864277 -19.39694261 107.43663991 -18.70533752 103.53469849 C-17.54613762 96.99680363 -16.38510763 90.45923589 -15.22290039 83.921875 C-13.88004947 76.36830337 -12.53986186 68.81426295 -11.20113128 61.25996006 C-9.90927976 53.97041248 -8.61582738 46.68114992 -7.32155037 39.39203262 C-6.77205617 36.29731664 -6.22307457 33.20251038 -5.6744976 30.10763168 C-5.029828 26.47116301 -4.38374191 22.83494876 -3.73655701 19.19892693 C-3.38635161 17.22951904 -3.03752425 15.25986626 -2.68873596 13.29020691 C-2.47989777 12.11854477 -2.27105957 10.94688263 -2.05589294 9.73971558 C-1.87505378 8.72180372 -1.69421461 7.70389187 -1.50789547 6.6551342 C-1.08053867 4.42103345 -0.55167339 2.20669356 0 0 Z " fill="#EA1E0B" transform="translate(340,190)"/>
<path d="M0 0 C41.25 0 82.5 0 125 0 C124.34 4.95 123.68 9.9 123 15 C122.731875 17.371875 122.46375 19.74375 122.1875 22.1875 C120.9063762 27.95875736 118.53466191 30.94322781 114.12231445 34.6706543 C112.9365784 35.71797191 111.7527541 36.76745736 110.57070923 37.81893921 C109.97177982 38.34733273 109.37285042 38.87572624 108.75577164 39.42013168 C106.070804 41.83610379 103.51569361 44.37216011 100.96948242 46.93286133 C100.47542562 47.42811152 99.98136881 47.92336172 99.47234058 48.4336195 C98.4555694 49.45467942 97.43981365 50.47675144 96.42503929 51.49979591 C94.79869659 53.1392615 93.16893512 54.77526634 91.53840637 56.41056824 C88.08521154 59.87500549 84.63604935 63.34343937 81.1875 66.8125 C77.16560539 70.85818287 73.14197277 74.90210793 69.1140995 78.94183922 C67.52352132 80.53880576 65.93602802 82.13879303 64.34867859 83.7389679 C63.36045111 84.73083225 62.3720805 85.72255404 61.38354492 86.71411133 C60.53451096 87.56838211 59.68547699 88.42265289 58.81071472 89.30281067 C55.31788474 92.65456447 51.64313313 95.81225851 48 99 C38.1 108.9 28.2 118.8 18 129 C46.05 129.33 74.1 129.66 103 130 C102.39594233 136.64463432 101.80630721 142.99393152 100.5625 149.5 C100.44068359 150.18835938 100.31886719 150.87671875 100.19335938 151.5859375 C99.55712434 154.97479561 98.94078184 157.08882723 97 160 C94.69241142 160.36914349 94.69241142 160.36914349 91.7482605 160.36076355 C90.63484283 160.36488754 89.52142517 160.36901154 88.37426758 160.3732605 C87.14716064 160.36247467 85.92005371 160.35168884 84.65576172 160.34057617 C83.36799835 160.34101425 82.08023499 160.34145233 80.75344849 160.34190369 C77.21636489 160.34276651 73.67958481 160.32509477 70.14257193 160.30418181 C66.44834515 160.28546253 62.75411186 160.28366834 59.05984497 160.28010559 C52.06164913 160.27077111 45.06359343 160.24613847 38.06545937 160.21605712 C30.09944164 160.18255664 22.13341732 160.16603808 14.16734672 160.15097082 C-2.22185097 160.11959004 -18.61090762 160.06680244 -35 160 C-34.75948393 157.32324881 -34.51666728 154.64677044 -34.26883888 151.97068405 C-34.11028476 150.21865249 -33.9595598 148.46582994 -33.82675743 146.71165848 C-32.79104859 133.90640259 -28.38670046 127.41389986 -19.17578125 118.7734375 C-17.98554263 117.60686161 -16.79835638 116.43716426 -15.61405945 115.26455688 C-12.51560777 112.21340925 -9.37714861 109.20701181 -6.22796631 106.20837402 C-3.0426867 103.15960785 0.10018186 100.06776338 3.24804688 96.98046875 C20.59425514 80.01948407 20.59425514 80.01948407 27.18481445 74.34594727 C31.8619774 70.31636351 36.18138009 65.94332441 40.53125 61.56640625 C41.69865723 60.3974884 41.69865723 60.3974884 42.88964844 59.20495605 C45.76252809 56.32689222 48.63101415 53.44444537 51.5 50.5625 C61.1525 40.8790625 61.1525 40.8790625 71 31 C45.92 30.67 20.84 30.34 -5 30 C-3.88045209 19.92406877 -1.89693086 9.95888704 0 0 Z " fill="#424242" transform="translate(922,189)"/>
<path d="M0 0 C1.51815699 0.00015911 3.0363194 0.00585313 4.55444336 0.01586914 C5.35208603 0.01728409 6.1497287 0.01869904 6.97154236 0.02015686 C9.52916146 0.02577223 12.08669429 0.03832727 14.64428711 0.05102539 C16.37410356 0.05603841 18.10392137 0.06060166 19.83374023 0.06469727 C24.08312264 0.07574664 28.33244023 0.09302153 32.58178711 0.11352539 C34.02147197 4.20404962 35.09415807 8.20984698 35.92324829 12.4647522 C36.17000809 13.7209285 36.41676788 14.9771048 36.67100525 16.27134705 C36.93773297 17.65052767 37.20437754 19.02972438 37.47094727 20.40893555 C37.75662024 21.87135714 38.04263481 23.33371204 38.32896423 24.79600525 C39.10322197 28.75581406 39.87243064 32.71658795 40.64051867 36.67759752 C41.44552344 40.82552738 42.25448922 44.97268494 43.06283569 49.1199646 C44.4190241 56.08145587 45.77187084 63.04359041 47.12280273 70.00610352 C48.68479831 78.05615524 50.25237411 86.10510532 51.82286799 94.15350306 C53.33413282 101.89918005 54.84117477 109.64567307 56.34638596 117.39252853 C56.98689995 120.68856863 57.62894701 123.98430461 58.27223587 127.27980423 C59.02913549 131.15822813 59.78235552 135.03734881 60.53273201 138.91703987 C60.80878608 140.34111953 61.08611848 141.76495206 61.36481667 143.18851662 C61.7447766 145.1304244 62.1196677 147.07332194 62.49429321 149.01626587 C62.70555155 150.10356302 62.91680988 151.19086018 63.13446999 152.31110573 C63.58178711 155.11352539 63.58178711 155.11352539 63.58178711 159.11352539 C51.70178711 159.11352539 39.82178711 159.11352539 27.58178711 159.11352539 C25.33179626 151.23855743 25.33179626 151.23855743 24.74731445 147.55610657 C24.61282898 146.72241043 24.47834351 145.88871429 24.33978271 145.02975464 C24.20050354 144.13870026 24.06122437 143.24764587 23.91772461 142.32958984 C23.76458801 141.37248611 23.61145142 140.41538239 23.45367432 139.42927551 C22.95066049 136.27908279 22.45371359 133.12796483 21.95678711 129.97680664 C21.60610059 127.7734724 21.25502016 125.57020082 20.90356445 123.36698914 C19.97995431 117.57063192 19.06142601 111.77348085 18.14404297 105.97613525 C17.21467596 100.10806837 16.28098897 94.24068936 15.34741211 88.37329102 C14.29555103 81.76248015 13.24401789 75.15162128 12.1965332 68.54011536 C9.94235216 54.31814836 9.94235216 54.31814836 7.58178711 40.11352539 C7.24824219 40.7582933 6.91469727 41.40306122 6.57104492 42.06736755 C-1.3804289 57.43152715 -9.56359648 72.65386725 -17.90209961 87.81079102 C-23.69732327 98.35034055 -29.3938614 108.92911055 -34.91821289 119.61352539 C-39.20658151 127.89960223 -43.5399271 136.15796451 -47.98071289 144.36352539 C-48.46926758 145.27424805 -48.95782227 146.1849707 -49.46118164 147.12329102 C-50.1534082 148.39462891 -50.1534082 148.39462891 -50.85961914 149.69165039 C-51.25866455 150.42802734 -51.65770996 151.1644043 -52.06884766 151.9230957 C-52.51413818 152.6459375 -52.95942871 153.3687793 -53.41821289 154.11352539 C-53.96952881 155.01965576 -54.52084473 155.92578613 -55.08886719 156.859375 C-57.77962274 159.4632683 -59.36886624 159.68205404 -63.05523682 159.68000793 C-64.13983185 159.64129829 -64.13983185 159.64129829 -65.24633789 159.60180664 C-66.3698465 159.59119453 -66.3698465 159.59119453 -67.51605225 159.58036804 C-69.90113526 159.55244677 -72.28384345 159.48972074 -74.66821289 159.42602539 C-76.28797057 159.40093922 -77.90776517 159.37812659 -79.52758789 159.35766602 C-83.49204028 159.30262864 -87.45472442 159.21637861 -91.41821289 159.11352539 C-90.13197602 154.92038544 -88.54420561 151.25169667 -86.39868164 147.42993164 C-85.79540039 146.34969727 -85.19211914 145.26946289 -84.57055664 144.15649414 C-83.59795898 142.43366211 -83.59795898 142.43366211 -82.60571289 140.67602539 C-81.92560548 139.46271901 -81.245924 138.24917378 -80.56665039 137.03540039 C-78.52453332 133.39060916 -76.47274839 129.75132773 -74.41821289 126.11352539 C-73.84538574 125.09887207 -73.27255859 124.08421875 -72.68237305 123.03881836 C-70.56895442 119.29812474 -68.4538732 115.55838558 -66.33496094 111.82080078 C-62.15492802 104.4410166 -58.02999647 97.03151863 -53.91821289 89.61352539 C-49.28755403 81.2594388 -44.62956103 72.92237979 -39.91821289 64.61352539 C-35.23043601 56.3448779 -30.59133128 48.05044247 -25.98071289 39.73852539 C-20.84538244 30.48263038 -15.70509034 21.22963933 -10.54321289 11.98852539 C-9.9419458 10.90909668 -9.34067871 9.82966797 -8.72119141 8.7175293 C-8.17003662 7.73187988 -7.61888184 6.74623047 -7.05102539 5.73071289 C-6.56520996 4.86043457 -6.07939453 3.99015625 -5.57885742 3.09350586 C-3.84023922 0.12754169 -3.84023922 0.12754169 0 0 Z " fill="#424242" transform="translate(806.418212890625,189.886474609375)"/>
<path d="M0 0 C11.88 0 23.76 0 36 0 C34.39825822 9.08376577 32.79475497 18.16720944 31.1875 27.25 C31.06611916 27.93605946 30.94473831 28.62211891 30.81967926 29.32896805 C26.45947076 53.96786791 21.99065792 78.58562213 17.44213867 103.19042969 C17.21806839 104.40499344 16.99399811 105.61955719 16.76313782 106.8709259 C16.34652534 109.1283961 15.92871716 111.38564613 15.50944519 113.6426239 C15.32440933 114.64541885 15.13937347 115.64821381 14.94873047 116.68139648 C14.78871552 117.54474106 14.62870056 118.40808563 14.46383667 119.29759216 C13.91054357 122.52119154 13.46255218 125.76213471 13 129 C31.81 129 50.62 129 70 129 C72.64 134.28 75.28 139.56 78 145 C80.08362264 148.99752051 80.08362264 148.99752051 82.1875 152.984375 C83 155 83 155 83 159 C46.7 159 10.4 159 -27 159 C-28.19161395 155.42515816 -27.76667719 153.63391629 -27.10195923 149.94033813 C-26.87759689 148.67290268 -26.65323456 147.40546722 -26.42207336 146.09962463 C-26.16514665 144.69220501 -25.90807701 143.28481146 -25.65087891 141.87744141 C-25.38600443 140.39755973 -25.12178378 138.91756091 -24.85816956 137.43745422 C-24.1395452 133.41347444 -23.41171695 129.39120761 -22.68224001 125.36918306 C-21.92071034 121.16172778 -21.16751851 116.95278062 -20.41342163 112.74398804 C-18.98269582 104.76619707 -17.54429828 96.78980894 -16.10323083 88.81388032 C-14.4669727 79.75528793 -12.83976354 70.69507746 -11.213094 61.63475919 C-8.81530152 48.28133719 -6.41431186 34.92848793 -4.00424004 21.57727623 C-3.74326919 20.13132584 -3.48245182 18.68534774 -3.22179985 17.23933983 C-2.86567562 15.2640176 -2.50885886 13.28882025 -2.15200806 11.31362915 C-1.85278159 9.65609839 -1.85278159 9.65609839 -1.54751015 7.96508217 C-1.05638778 5.30537226 -0.53043009 2.65215043 0 0 Z " fill="#EA1F0C" transform="translate(478,190)"/>
<path d="M0 0 C2.578692 2.14098044 4.82803279 4.45090665 7 7 C7.66 4.69 8.32 2.38 9 0 C14.61 0 20.22 0 26 0 C25.23679986 8.0441405 23.85087054 15.9463407 22.41796875 23.89453125 C22.15993078 25.33265565 21.9018997 26.77078128 21.64387512 28.20890808 C21.10403237 31.21237125 20.5614214 34.21532065 20.01733398 37.21801758 C19.326833 41.0321507 18.64736386 44.84816001 17.97053051 48.66473866 C17.44200878 51.63356902 16.90542651 54.60090353 16.36675453 57.56790733 C16.11310457 58.97253757 15.86232855 60.37769043 15.61470604 61.78339577 C12.74600534 78.03025674 9.15317224 93.04612062 -5 103 C-7.91368407 104.65903719 -10.83338701 105.90597919 -14 107 C-14.9590625 107.33837891 -14.9590625 107.33837891 -15.9375 107.68359375 C-28.23731907 111.16694095 -43.22553558 110.3191469 -54.375 104.125 C-58.23628268 100.99919974 -61.07439947 97.58795257 -63 93 C-63.25065631 89.97207178 -63.08957617 87.04558972 -63 84 C-57.39 84 -51.78 84 -46 84 C-45.01 86.31 -44.02 88.62 -43 91 C-38.39838126 95.45317943 -32.98804319 95.29657463 -26.8828125 95.20703125 C-20.74867855 94.76650402 -15.88978893 93.40212543 -11.625 88.8125 C-6.82134743 82.46529147 -5.52431676 75.81051178 -5 68 C-5.94875 68.9075 -6.8975 69.815 -7.875 70.75 C-15.42192827 77.10689367 -22.90324048 78.64459007 -32.6640625 78.31640625 C-40.68352865 77.55577773 -46.54948494 75.01827705 -52 69 C-58.86537836 59.35136014 -58.82518934 48.16617881 -56.9375 36.875 C-54.36087642 23.82654601 -48.03308744 12.44717681 -37.4375 4.3125 C-26.6138491 -2.91411805 -12.00904422 -6.42550336 0 0 Z M-31.75 18.6875 C-39.80517569 28.54497527 -40.94305303 39.64862492 -40 52 C-38.83307532 56.30620575 -37.08381435 59.16004388 -33.5 61.9375 C-27.41825341 64.5222423 -21.28067204 64.94514474 -14.9375 62.9375 C-7.13332428 59.61689974 -3.17311471 53.44905633 0 45.83984375 C3.15373123 36.88373983 4.30942215 28.16819704 1.0546875 19.0859375 C-1.11269936 14.79932793 -4.46227372 12.51257543 -9 11 C-18.60652599 10.05331489 -25.07429279 11.60163281 -31.75 18.6875 Z " fill="#434343" transform="translate(752,416)"/>
<path d="M0 0 C5.94 0 11.88 0 18 0 C7.41483309 60.05969845 7.41483309 60.05969845 2.375 87.1875 C2.20742188 88.09327789 2.03984375 88.99905579 1.8671875 89.93228149 C1.40098805 92.44882775 0.9316666 94.96476633 0.4609375 97.48046875 C0.32601898 98.20877899 0.19110046 98.93708923 0.05209351 99.68746948 C-0.4862036 102.54212264 -1.07981782 105.23945345 -2 108 C-7.61 108 -13.22 108 -19 108 C-19 105.69 -19 103.38 -19 101 C-19.4125 101.39832031 -19.825 101.79664063 -20.25 102.20703125 C-27.58713949 108.93820163 -35.74129631 111.40193506 -45.73046875 111.2109375 C-53.91348823 110.45038147 -61.22626579 107.9968103 -67 102 C-73.74466971 93.17342969 -74.58020056 83.01007786 -73.47265625 72.265625 C-71.50313801 58.65804446 -66.69776175 45.39639209 -55.9375 36.24609375 C-46.02753094 29.1852408 -36.08700658 26.83999107 -24 28 C-16.8702973 29.29145812 -13.01070704 32.49196972 -7 37 C-4.69 24.79 -2.38 12.58 0 0 Z M-48.27734375 51.57421875 C-54.547559 60.40370553 -57.09136585 71.25957414 -56 82 C-54.70580116 88.22085491 -52.19441858 91.42883723 -47 95 C-40.95263571 97.0157881 -33.57559092 97.12077772 -27.6875 94.5 C-19.50688722 89.66986688 -14.84794369 81.51724195 -11.9140625 72.7578125 C-10.9415707 68.75979064 -10.6680564 65.02454575 -10.6875 60.9375 C-10.67138672 60.25623047 -10.65527344 59.57496094 -10.63867188 58.87304688 C-10.63345725 53.44461993 -11.80926783 49.40181834 -15.5 45.35546875 C-26.95720657 36.43436259 -39.75106909 41.21725291 -48.27734375 51.57421875 Z " fill="#434343" transform="translate(993,386)"/>
<path d="M0 0 C0.99386719 0.00902344 1.98773437 0.01804687 3.01171875 0.02734375 C4.15060547 0.04474609 4.15060547 0.04474609 5.3125 0.0625 C5.17036703 1.95861434 5.02363093 3.85438394 4.875 5.75 C4.79378906 6.80574219 4.71257813 7.86148437 4.62890625 8.94921875 C4.34798319 11.71336297 3.91093148 14.35195741 3.3125 17.0625 C2.3946875 17.08828125 1.476875 17.1140625 0.53125 17.140625 C-8.74220808 17.56923021 -15.43867089 18.3168432 -21.9375 25.25 C-27.25735553 32.1870728 -29.36195372 39.85412774 -30.828125 48.34765625 C-31.00003357 49.28935165 -31.17194214 50.23104706 -31.34906006 51.20127869 C-31.88923916 54.17403966 -32.41361594 57.14932892 -32.9375 60.125 C-33.30364125 62.15578787 -33.67081911 64.18638913 -34.0390625 66.21679688 C-34.93386499 71.1632896 -35.81451871 76.11211158 -36.6875 81.0625 C-42.6275 81.0625 -48.5675 81.0625 -54.6875 81.0625 C-53.26673893 71.54260287 -51.64742846 62.07463654 -49.90234375 52.609375 C-49.63850307 51.17304419 -49.37471522 49.73670367 -49.11097717 48.300354 C-48.56354678 45.32189091 -48.01455951 42.34371967 -47.46459961 39.36572266 C-46.75894741 35.54319144 -46.05874988 31.719682 -45.35982418 27.89591599 C-44.81948152 24.94444572 -44.27559636 21.99363662 -43.73068428 19.0430069 C-43.47065116 17.6317803 -43.21190115 16.22031666 -42.95445061 14.80861664 C-42.59696826 12.85056979 -42.23405146 10.89351743 -41.87084961 8.93652344 C-41.66592392 7.82323669 -41.46099823 6.70994995 -41.24986267 5.56292725 C-40.6875 3.0625 -40.6875 3.0625 -39.6875 2.0625 C-36.99095146 1.98930379 -34.32058542 1.97007463 -31.625 2 C-30.86638672 2.00451172 -30.10777344 2.00902344 -29.32617188 2.01367188 C-27.44658129 2.0254932 -25.56703101 2.04342922 -23.6875 2.0625 C-24.0175 5.6925 -24.3475 9.3225 -24.6875 13.0625 C-23.5325 11.825 -22.3775 10.5875 -21.1875 9.3125 C-15.12989333 3.23337431 -8.65501895 -0.10182375 0 0 Z " fill="#434343" transform="translate(850.6875,413.9375)"/>
<path d="M0 0 C1.58206057 0.00667536 3.16410534 0.0186375 4.74609375 0.03515625 C5.55240234 0.03966797 6.35871094 0.04417969 7.18945312 0.04882812 C9.18753131 0.06065107 11.18557158 0.07858711 13.18359375 0.09765625 C12.53895089 8.64708976 11.04194891 17.01952586 9.49609375 25.44140625 C9.23061861 26.90201222 8.9654051 28.36266577 8.70043945 29.82336426 C8.14818861 32.86285147 7.59319976 35.90182156 7.03613281 38.94042969 C6.32178149 42.83791576 5.61379253 46.73652577 4.9077301 50.63552094 C4.36271212 53.64186343 3.81469225 56.64765245 3.26571655 59.65327454 C3.00330945 61.0916636 2.74176922 62.53021108 2.48110962 63.96891785 C2.11802284 65.97006183 1.7505269 67.97040431 1.3828125 69.97070312 C1.17487061 71.10858276 0.96692871 72.2464624 0.75268555 73.41882324 C0.18359375 76.09765625 0.18359375 76.09765625 -0.81640625 78.09765625 C-6.42640625 78.09765625 -12.03640625 78.09765625 -17.81640625 78.09765625 C-17.10449758 69.46733399 -15.66403496 61.01359599 -14.12890625 52.5 C-13.86346896 51.0145706 -13.59825471 49.52910134 -13.33325195 48.04359436 C-12.78097717 44.95284472 -12.22595605 41.86260461 -11.66894531 38.77270508 C-10.95406352 34.80569543 -10.24629969 30.83745347 -9.5405426 26.86881161 C-8.99609114 23.81180177 -8.44788861 20.75547401 -7.89852905 17.69934273 C-7.63579682 16.23506285 -7.37425781 14.77056837 -7.11392212 13.30586052 C-6.75165081 11.27082268 -6.38433768 9.23676003 -6.015625 7.20288086 C-5.80768311 6.04501572 -5.59974121 4.88715057 -5.38549805 3.69419861 C-4.49476195 -0.36988036 -4.44034205 0.11362185 0 0 Z " fill="#434343" transform="translate(883.81640625,415.90234375)"/>
<path d="M0 0 C2.37652798 2.37652798 2.50694722 3.55889596 3.14501953 6.81347656 C3.44510422 8.31578827 3.44510422 8.31578827 3.75125122 9.84844971 C3.95966644 10.93486755 4.16808167 12.0212854 4.3828125 13.140625 C4.71150833 14.81303253 4.71150833 14.81303253 5.04684448 16.51922607 C5.50940877 18.88236979 5.96813326 21.24626781 6.42333984 23.61083984 C7.11980864 27.22307503 7.83042054 30.83231258 8.54296875 34.44140625 C8.99043431 36.73681344 9.43707578 39.03238147 9.8828125 41.328125 C10.09527618 42.40644592 10.30773987 43.48476685 10.52664185 44.59576416 C10.72039398 45.60991394 10.91414612 46.62406372 11.11376953 47.66894531 C11.37119431 48.99892548 11.37119431 48.99892548 11.63381958 50.35577393 C12 53 12 53 12 59 C-2.19 59 -16.38 59 -31 59 C-29.57793956 54.73381868 -28.33388095 51.48809818 -26.234375 47.640625 C-25.68031982 46.6189624 -25.12626465 45.5972998 -24.55541992 44.54467773 C-23.95963135 43.45743408 -23.36384277 42.37019043 -22.75 41.25 C-21.81294347 39.52646112 -20.87589605 37.80291721 -19.93937683 36.0790863 C-19.29078825 34.88599248 -18.64153872 33.69325775 -17.99165344 32.50086975 C-15.64270201 28.19065579 -13.31407051 23.86991106 -10.99609375 19.54296875 C-10.67446259 18.94306122 -10.35283142 18.34315369 -10.02145386 17.72506714 C-8.46518967 14.82226706 -6.91005811 11.91886862 -5.35644531 9.01464844 C-4.79924805 7.97727539 -4.24205078 6.93990234 -3.66796875 5.87109375 C-3.17578857 4.95255615 -2.6836084 4.03401855 -2.17651367 3.08764648 C-1 1 -1 1 0 0 Z " fill="#EA2311" transform="translate(802,290)"/>
<path d="M0 0 C1.48831242 0.00667405 2.97660807 0.01863442 4.46484375 0.03515625 C5.22345703 0.03966797 5.98207031 0.04417969 6.76367188 0.04882812 C8.64326246 0.06064945 10.52281274 0.07858547 12.40234375 0.09765625 C13.99208026 3.27712926 12.68838544 6.38317894 11.96484375 9.72265625 C11.44921875 12.15640625 10.93359375 14.59015625 10.40234375 17.09765625 C4.46234375 17.09765625 -1.47765625 17.09765625 -7.59765625 17.09765625 C-7.12328125 14.47828125 -6.64890625 11.85890625 -6.16015625 9.16015625 C-6.01263916 8.33394775 -5.86512207 7.50773926 -5.71313477 6.65649414 C-4.50847609 0.12237992 -4.50847609 0.12237992 0 0 Z " fill="#474747" transform="translate(889.59765625,384.90234375)"/>
</svg>
